<svg width="88" height="34" viewBox="0 0 88 34" fill="none" xmlns="http://www.w3.org/2000/svg">
<path d="M19.1262 3L8.90289 21.422L19.1262 32.4752L29.6116 21.422L19.1262 3Z" stroke="#B19CDF" stroke-width="2"/>
<path d="M12.2233 3L2 21.422L12.2233 32.4752L22.7087 21.422L12.2233 3Z" stroke="#B19CDF" stroke-width="2"/>
<line x1="36.7476" y1="3" x2="36.7476" y2="32.4752" stroke="#B19CDF" stroke-width="2"/>
<path d="M54.628 30.28C53.1347 30.28 51.7253 29.9907 50.4 29.412C49.0933 28.8147 47.936 28.0027 46.928 26.976C45.92 25.9307 45.1267 24.736 44.548 23.392C43.9693 22.0293 43.68 20.5827 43.68 19.052C43.68 17.54 43.96 16.112 44.52 14.768C45.08 13.4053 45.8547 12.2107 46.844 11.184C47.852 10.1387 49.0187 9.32667 50.344 8.748C51.6693 8.15067 53.0973 7.852 54.628 7.852C55.916 7.852 57.1387 8.05733 58.296 8.468C59.4533 8.87867 60.536 9.504 61.544 10.344C61.712 10.4747 61.796 10.6613 61.796 10.904C61.796 11.128 61.7213 11.3333 61.572 11.52C61.4227 11.688 61.2173 11.772 60.956 11.772C60.8813 11.772 60.8067 11.7627 60.732 11.744C60.6573 11.7067 60.5827 11.6693 60.508 11.632C60.4333 11.576 60.3493 11.5107 60.256 11.436C59.5093 10.764 58.66 10.2787 57.708 9.98C56.756 9.68133 55.7293 9.532 54.628 9.532C53.3773 9.532 52.192 9.79333 51.072 10.316C49.952 10.82 48.9627 11.52 48.104 12.416C47.2453 13.2933 46.5733 14.3013 46.088 15.44C45.6027 16.5787 45.36 17.7827 45.36 19.052C45.36 20.3587 45.6027 21.5907 46.088 22.748C46.5733 23.9053 47.236 24.9227 48.076 25.8C48.9347 26.6773 49.924 27.368 51.044 27.872C52.164 28.3573 53.3587 28.6 54.628 28.6C55.7293 28.6 56.756 28.432 57.708 28.096C58.6787 27.76 59.584 27.2467 60.424 26.556C60.5733 26.4253 60.7507 26.3787 60.956 26.416C61.1613 26.4533 61.3387 26.5467 61.488 26.696C61.6373 26.8453 61.712 27.0413 61.712 27.284C61.712 27.396 61.7027 27.4987 61.684 27.592C61.6653 27.6853 61.6093 27.7787 61.516 27.872C60.6013 28.7867 59.5373 29.4213 58.324 29.776C57.1293 30.112 55.8973 30.28 54.628 30.28ZM72.8168 30.28C71.6408 30.28 70.5582 30.1213 69.5688 29.804C68.5982 29.468 67.7582 29.0013 67.0488 28.404C66.3395 27.788 65.7795 27.0693 65.3688 26.248C65.2568 26.024 65.2475 25.8093 65.3408 25.604C65.4528 25.3987 65.6302 25.2587 65.8728 25.184C66.0782 25.1093 66.2835 25.1187 66.4888 25.212C66.6942 25.3053 66.8528 25.4547 66.9648 25.66C67.3008 26.2573 67.7395 26.78 68.2808 27.228C68.8408 27.676 69.4942 28.0213 70.2408 28.264C71.0062 28.488 71.8648 28.6 72.8168 28.6C73.8808 28.6 74.7955 28.4227 75.5608 28.068C76.3448 27.7133 76.9422 27.1907 77.3528 26.5C77.7822 25.8093 77.9968 24.9693 77.9968 23.98C77.9968 22.748 77.5488 21.712 76.6528 20.872C75.7755 20.0133 74.4315 19.4627 72.6208 19.22C70.5302 18.9213 68.8968 18.2493 67.7208 17.204C66.5448 16.14 65.9568 14.852 65.9568 13.34C65.9568 12.2387 66.2275 11.2773 66.7688 10.456C67.3288 9.63467 68.1035 9 69.0928 8.552C70.1008 8.08533 71.2582 7.852 72.5648 7.852C73.5355 7.852 74.4315 8.01067 75.2528 8.328C76.0742 8.64533 76.7928 9.06533 77.4088 9.588C78.0248 10.092 78.5008 10.624 78.8368 11.184C78.9675 11.3893 78.9955 11.6133 78.9208 11.856C78.8648 12.08 78.7155 12.2387 78.4728 12.332C78.2675 12.4067 78.0622 12.416 77.8568 12.36C77.6515 12.2853 77.4835 12.1547 77.3528 11.968C77.0915 11.576 76.7555 11.1933 76.3448 10.82C75.9342 10.4467 75.4208 10.1387 74.8048 9.896C74.1888 9.65333 73.4422 9.532 72.5648 9.532C71.0342 9.532 69.8302 9.87733 68.9528 10.568C68.0755 11.2587 67.6368 12.2387 67.6368 13.508C67.6368 14.18 67.8142 14.796 68.1688 15.356C68.5422 15.8973 69.1208 16.364 69.9048 16.756C70.6888 17.148 71.6875 17.4467 72.9008 17.652C75.3088 18.0627 77.0355 18.8093 78.0808 19.892C79.1448 20.956 79.6768 22.3187 79.6768 23.98C79.6768 24.9507 79.5088 25.828 79.1728 26.612C78.8555 27.396 78.3888 28.0587 77.7728 28.6C77.1755 29.1413 76.4568 29.5613 75.6168 29.86C74.7768 30.14 73.8435 30.28 72.8168 30.28Z" fill="#B19CDF"/>
</svg>
